<?xml version="1.0" encoding="UTF-8" standalone="no"?>
<svg xmlns="http://www.w3.org/2000/svg" xmlns:xlink="http://www.w3.org/1999/xlink" contentScriptType="application/ecmascript" contentStyleType="text/css" height="488px" preserveAspectRatio="none" style="width:346px;height:488px;" version="1.1" viewBox="0 0 346 488" width="346px" zoomAndPan="magnify"><defs><filter height="300%" id="f1x3nb6wjczous" width="300%" x="-1" y="-1"><feGaussianBlur result="blurOut" stdDeviation="2.0"/><feColorMatrix in="blurOut" result="blurOut2" type="matrix" values="0 0 0 0 0 0 0 0 0 0 0 0 0 0 0 0 0 0 .4 0"/><feOffset dx="4.0" dy="4.0" in="blurOut2" result="blurOut3"/><feBlend in="SourceGraphic" in2="blurOut3" mode="normal"/></filter></defs><g><text fill="#000000" font-family="sans-serif" font-size="18" lengthAdjust="spacingAndGlyphs" textLength="207" x="73" y="16.708">Diagrama de conceptos</text><!--MD5=[abceb2bb61d296a097e5b23663675653]
class Lista--><rect fill="#FEFECE" filter="url(#f1x3nb6wjczous)" height="60.8047" id="Lista" style="stroke: #A80036; stroke-width: 1.5;" width="92" x="155" y="28.9531"/><ellipse cx="183.95" cy="44.9531" fill="#ADD1B2" rx="11" ry="11" style="stroke: #A80036; stroke-width: 1.0;"/><path d="M186.2938,40.625 L186.4656,40.7031 C186.6844,40.3906 186.8875,40.2969 187.1844,40.2969 C187.4813,40.2969 187.7625,40.4375 187.9188,40.7031 C188.0125,40.8594 188.0281,40.9844 188.0281,41.4219 L188.0281,42.8438 C188.0281,43.2656 187.9969,43.4531 187.8875,43.6094 C187.7156,43.8281 187.45,43.9688 187.1844,43.9688 C186.9656,43.9688 186.7313,43.8594 186.5906,43.7188 C186.45,43.5938 186.4188,43.4688 186.3563,43.0625 C186.2625,42.6563 186.0906,42.4375 185.6063,42.1563 C185.1375,41.9063 184.5281,41.75 183.95,41.75 C182.2156,41.75 180.9656,43.0625 180.9656,44.8438 L180.9656,45.9375 C180.9656,47.6406 182.2625,48.7344 184.3094,48.7344 C185.075,48.7344 185.7625,48.6094 186.1844,48.3438 C186.3719,48.25 186.3719,48.25 186.825,47.7656 C187.0125,47.5781 187.2156,47.5 187.4344,47.5 C187.9031,47.5 188.2938,47.8906 188.2938,48.3438 C188.2938,48.7344 187.9656,49.1875 187.3875,49.5938 C186.6375,50.1406 185.4813,50.4375 184.2625,50.4375 C181.3719,50.4375 179.2625,48.5469 179.2625,45.9688 L179.2625,44.8438 C179.2625,42.125 181.2625,40.0469 183.8875,40.0469 C184.7625,40.0469 185.3563,40.1875 186.2938,40.625 Z "/><text fill="#000000" font-family="sans-serif" font-size="12" lengthAdjust="spacingAndGlyphs" textLength="29" x="201.05" y="49.1074">Lista</text><line style="stroke: #A80036; stroke-width: 1.5;" x1="156" x2="246" y1="60.9531" y2="60.9531"/><ellipse cx="166" cy="71.9531" fill="none" rx="3" ry="3" style="stroke: #038048; stroke-width: 1.0;"/><text fill="#000000" font-family="sans-serif" font-size="11" lengthAdjust="spacingAndGlyphs" textLength="66" x="175" y="75.1636">String titulo</text><line style="stroke: #A80036; stroke-width: 1.5;" x1="156" x2="246" y1="81.7578" y2="81.7578"/><!--MD5=[3051a6a8f877a755a60c7cfd1e6f410a]
class Objeto--><rect fill="#FEFECE" filter="url(#f1x3nb6wjczous)" height="73.6094" id="Objeto" style="stroke: #A80036; stroke-width: 1.5;" width="117" x="81.5" y="149.9531"/><ellipse cx="116.3" cy="165.9531" fill="#ADD1B2" rx="11" ry="11" style="stroke: #A80036; stroke-width: 1.0;"/><path d="M118.6438,161.625 L118.8156,161.7031 C119.0344,161.3906 119.2375,161.2969 119.5344,161.2969 C119.8313,161.2969 120.1125,161.4375 120.2688,161.7031 C120.3625,161.8594 120.3781,161.9844 120.3781,162.4219 L120.3781,163.8438 C120.3781,164.2656 120.3469,164.4531 120.2375,164.6094 C120.0656,164.8281 119.8,164.9688 119.5344,164.9688 C119.3156,164.9688 119.0813,164.8594 118.9406,164.7188 C118.8,164.5938 118.7688,164.4688 118.7063,164.0625 C118.6125,163.6563 118.4406,163.4375 117.9563,163.1563 C117.4875,162.9063 116.8781,162.75 116.3,162.75 C114.5656,162.75 113.3156,164.0625 113.3156,165.8438 L113.3156,166.9375 C113.3156,168.6406 114.6125,169.7344 116.6594,169.7344 C117.425,169.7344 118.1125,169.6094 118.5344,169.3438 C118.7219,169.25 118.7219,169.25 119.175,168.7656 C119.3625,168.5781 119.5656,168.5 119.7844,168.5 C120.2531,168.5 120.6438,168.8906 120.6438,169.3438 C120.6438,169.7344 120.3156,170.1875 119.7375,170.5938 C118.9875,171.1406 117.8313,171.4375 116.6125,171.4375 C113.7219,171.4375 111.6125,169.5469 111.6125,166.9688 L111.6125,165.8438 C111.6125,163.125 113.6125,161.0469 116.2375,161.0469 C117.1125,161.0469 117.7063,161.1875 118.6438,161.625 Z "/><text fill="#000000" font-family="sans-serif" font-size="12" lengthAdjust="spacingAndGlyphs" textLength="41" x="134.7" y="170.1074">Objeto</text><line style="stroke: #A80036; stroke-width: 1.5;" x1="82.5" x2="197.5" y1="181.9531" y2="181.9531"/><ellipse cx="92.5" cy="192.9531" fill="none" rx="3" ry="3" style="stroke: #038048; stroke-width: 1.0;"/><text fill="#000000" font-family="sans-serif" font-size="11" lengthAdjust="spacingAndGlyphs" textLength="82" x="101.5" y="196.1636">String nombre</text><ellipse cx="92.5" cy="205.7578" fill="none" rx="3" ry="3" style="stroke: #038048; stroke-width: 1.0;"/><text fill="#000000" font-family="sans-serif" font-size="11" lengthAdjust="spacingAndGlyphs" textLength="91" x="101.5" y="208.9683">String ubicación</text><line style="stroke: #A80036; stroke-width: 1.5;" x1="82.5" x2="197.5" y1="215.5625" y2="215.5625"/><!--MD5=[2aabce7f345dac02712b3bca4a28d215]
class Recordatorio--><rect fill="#FEFECE" filter="url(#f1x3nb6wjczous)" height="60.8047" id="Recordatorio" style="stroke: #A80036; stroke-width: 1.5;" width="114" x="6" y="28.9531"/><ellipse cx="21.45" cy="44.9531" fill="#ADD1B2" rx="11" ry="11" style="stroke: #A80036; stroke-width: 1.0;"/><path d="M23.7938,40.625 L23.9656,40.7031 C24.1844,40.3906 24.3875,40.2969 24.6844,40.2969 C24.9813,40.2969 25.2625,40.4375 25.4188,40.7031 C25.5125,40.8594 25.5281,40.9844 25.5281,41.4219 L25.5281,42.8438 C25.5281,43.2656 25.4969,43.4531 25.3875,43.6094 C25.2156,43.8281 24.95,43.9688 24.6844,43.9688 C24.4656,43.9688 24.2313,43.8594 24.0906,43.7188 C23.95,43.5938 23.9188,43.4688 23.8563,43.0625 C23.7625,42.6563 23.5906,42.4375 23.1063,42.1563 C22.6375,41.9063 22.0281,41.75 21.45,41.75 C19.7156,41.75 18.4656,43.0625 18.4656,44.8438 L18.4656,45.9375 C18.4656,47.6406 19.7625,48.7344 21.8094,48.7344 C22.575,48.7344 23.2625,48.6094 23.6844,48.3438 C23.8719,48.25 23.8719,48.25 24.325,47.7656 C24.5125,47.5781 24.7156,47.5 24.9344,47.5 C25.4031,47.5 25.7938,47.8906 25.7938,48.3438 C25.7938,48.7344 25.4656,49.1875 24.8875,49.5938 C24.1375,50.1406 22.9813,50.4375 21.7625,50.4375 C18.8719,50.4375 16.7625,48.5469 16.7625,45.9688 L16.7625,44.8438 C16.7625,42.125 18.7625,40.0469 21.3875,40.0469 C22.2625,40.0469 22.8563,40.1875 23.7938,40.625 Z "/><text fill="#000000" font-family="sans-serif" font-size="12" lengthAdjust="spacingAndGlyphs" textLength="81" x="35.55" y="49.1074">Recordatorio</text><line style="stroke: #A80036; stroke-width: 1.5;" x1="7" x2="119" y1="60.9531" y2="60.9531"/><ellipse cx="17" cy="71.9531" fill="none" rx="3" ry="3" style="stroke: #038048; stroke-width: 1.0;"/><text fill="#000000" font-family="sans-serif" font-size="11" lengthAdjust="spacingAndGlyphs" textLength="88" x="26" y="75.1636">Date fechaHora</text><line style="stroke: #A80036; stroke-width: 1.5;" x1="7" x2="119" y1="81.7578" y2="81.7578"/><!--MD5=[9024056033541d8e4ad4cfc446a6df80]
class Plantilla--><rect fill="#FEFECE" filter="url(#f1x3nb6wjczous)" height="73.6094" id="Plantilla" style="stroke: #A80036; stroke-width: 1.5;" width="102" x="70" y="289.9531"/><ellipse cx="94.45" cy="305.9531" fill="#ADD1B2" rx="11" ry="11" style="stroke: #A80036; stroke-width: 1.0;"/><path d="M96.7938,301.625 L96.9656,301.7031 C97.1844,301.3906 97.3875,301.2969 97.6844,301.2969 C97.9813,301.2969 98.2625,301.4375 98.4188,301.7031 C98.5125,301.8594 98.5281,301.9844 98.5281,302.4219 L98.5281,303.8438 C98.5281,304.2656 98.4969,304.4531 98.3875,304.6094 C98.2156,304.8281 97.95,304.9688 97.6844,304.9688 C97.4656,304.9688 97.2313,304.8594 97.0906,304.7188 C96.95,304.5938 96.9188,304.4688 96.8563,304.0625 C96.7625,303.6563 96.5906,303.4375 96.1063,303.1563 C95.6375,302.9063 95.0281,302.75 94.45,302.75 C92.7156,302.75 91.4656,304.0625 91.4656,305.8438 L91.4656,306.9375 C91.4656,308.6406 92.7625,309.7344 94.8094,309.7344 C95.575,309.7344 96.2625,309.6094 96.6844,309.3438 C96.8719,309.25 96.8719,309.25 97.325,308.7656 C97.5125,308.5781 97.7156,308.5 97.9344,308.5 C98.4031,308.5 98.7938,308.8906 98.7938,309.3438 C98.7938,309.7344 98.4656,310.1875 97.8875,310.5938 C97.1375,311.1406 95.9813,311.4375 94.7625,311.4375 C91.8719,311.4375 89.7625,309.5469 89.7625,306.9688 L89.7625,305.8438 C89.7625,303.125 91.7625,301.0469 94.3875,301.0469 C95.2625,301.0469 95.8563,301.1875 96.7938,301.625 Z "/><text fill="#000000" font-family="sans-serif" font-size="12" lengthAdjust="spacingAndGlyphs" textLength="49" x="110.55" y="310.1074">Plantilla</text><line style="stroke: #A80036; stroke-width: 1.5;" x1="71" x2="171" y1="321.9531" y2="321.9531"/><ellipse cx="81" cy="332.9531" fill="none" rx="3" ry="3" style="stroke: #038048; stroke-width: 1.0;"/><text fill="#000000" font-family="sans-serif" font-size="11" lengthAdjust="spacingAndGlyphs" textLength="66" x="90" y="336.1636">String titulo</text><ellipse cx="81" cy="345.7578" fill="none" rx="3" ry="3" style="stroke: #038048; stroke-width: 1.0;"/><text fill="#000000" font-family="sans-serif" font-size="11" lengthAdjust="spacingAndGlyphs" textLength="76" x="90" y="348.9683">int valoración</text><line style="stroke: #A80036; stroke-width: 1.5;" x1="71" x2="171" y1="355.5625" y2="355.5625"/><!--MD5=[35a64b983c79880384a2fd9b61f0c24b]
class Usuario--><rect fill="#FEFECE" filter="url(#f1x3nb6wjczous)" height="86.4141" id="Usuario" style="stroke: #A80036; stroke-width: 1.5;" width="128" x="207" y="283.9531"/><ellipse cx="243.6" cy="299.9531" fill="#ADD1B2" rx="11" ry="11" style="stroke: #A80036; stroke-width: 1.0;"/><path d="M245.9438,295.625 L246.1156,295.7031 C246.3344,295.3906 246.5375,295.2969 246.8344,295.2969 C247.1313,295.2969 247.4125,295.4375 247.5688,295.7031 C247.6625,295.8594 247.6781,295.9844 247.6781,296.4219 L247.6781,297.8438 C247.6781,298.2656 247.6469,298.4531 247.5375,298.6094 C247.3656,298.8281 247.1,298.9688 246.8344,298.9688 C246.6156,298.9688 246.3813,298.8594 246.2406,298.7188 C246.1,298.5938 246.0688,298.4688 246.0063,298.0625 C245.9125,297.6563 245.7406,297.4375 245.2563,297.1563 C244.7875,296.9063 244.1781,296.75 243.6,296.75 C241.8656,296.75 240.6156,298.0625 240.6156,299.8438 L240.6156,300.9375 C240.6156,302.6406 241.9125,303.7344 243.9594,303.7344 C244.725,303.7344 245.4125,303.6094 245.8344,303.3438 C246.0219,303.25 246.0219,303.25 246.475,302.7656 C246.6625,302.5781 246.8656,302.5 247.0844,302.5 C247.5531,302.5 247.9438,302.8906 247.9438,303.3438 C247.9438,303.7344 247.6156,304.1875 247.0375,304.5938 C246.2875,305.1406 245.1313,305.4375 243.9125,305.4375 C241.0219,305.4375 238.9125,303.5469 238.9125,300.9688 L238.9125,299.8438 C238.9125,297.125 240.9125,295.0469 243.5375,295.0469 C244.4125,295.0469 245.0063,295.1875 245.9438,295.625 Z "/><text fill="#000000" font-family="sans-serif" font-size="12" lengthAdjust="spacingAndGlyphs" textLength="48" x="262.4" y="304.1074">Usuario</text><line style="stroke: #A80036; stroke-width: 1.5;" x1="208" x2="334" y1="315.9531" y2="315.9531"/><ellipse cx="218" cy="326.9531" fill="none" rx="3" ry="3" style="stroke: #038048; stroke-width: 1.0;"/><text fill="#000000" font-family="sans-serif" font-size="11" lengthAdjust="spacingAndGlyphs" textLength="82" x="227" y="330.1636">String nombre</text><ellipse cx="218" cy="339.7578" fill="none" rx="3" ry="3" style="stroke: #038048; stroke-width: 1.0;"/><text fill="#000000" font-family="sans-serif" font-size="11" lengthAdjust="spacingAndGlyphs" textLength="102" x="227" y="342.9683">String contraseña</text><ellipse cx="218" cy="352.5625" fill="none" rx="3" ry="3" style="stroke: #038048; stroke-width: 1.0;"/><text fill="#000000" font-family="sans-serif" font-size="11" lengthAdjust="spacingAndGlyphs" textLength="69" x="227" y="355.7729">String email</text><line style="stroke: #A80036; stroke-width: 1.5;" x1="208" x2="334" y1="362.3672" y2="362.3672"/><!--MD5=[540be22caa450814a6d6472fad912f6e]
class Categoría--><rect fill="#FEFECE" filter="url(#f1x3nb6wjczous)" height="48" id="Categoría" style="stroke: #A80036; stroke-width: 1.5;" width="93" x="74.5" y="429.9531"/><ellipse cx="89.5" cy="445.9531" fill="#EB937F" rx="11" ry="11" style="stroke: #A80036; stroke-width: 1.0;"/><path d="M87.7969,446.8281 L87.7969,449.25 L92.1563,449.25 L92.1563,448.375 C92.1563,447.8906 92.1875,447.75 92.2969,447.5938 C92.4688,447.3438 92.7344,447.2344 93,447.2344 C93.2813,447.2344 93.5625,447.3906 93.7344,447.6406 C93.8125,447.7969 93.8438,447.9375 93.8438,448.375 L93.8438,450.9531 L85.8438,450.9531 C85.4531,450.9531 85.2188,450.9063 85.0781,450.7813 C84.8594,450.625 84.7188,450.375 84.7188,450.1094 C84.7188,449.8125 84.875,449.5469 85.125,449.375 C85.2813,449.2656 85.4375,449.25 85.8438,449.25 L86.0938,449.25 L86.0938,442.7344 L85.8438,442.7344 C85.4219,442.7344 85.2344,442.7031 85.0781,442.5938 C84.8594,442.4219 84.7188,442.1719 84.7188,441.8906 C84.7188,441.6094 84.875,441.3125 85.125,441.1563 C85.2813,441.0625 85.4063,441.0469 85.8438,441.0469 L93.4688,441.0469 L93.4688,443.5938 C93.4688,444.0625 93.4375,444.2031 93.3281,444.375 C93.1563,444.5938 92.8906,444.7344 92.625,444.7344 C92.3438,444.7344 92.0625,444.5781 91.8906,444.3281 C91.8125,444.1719 91.7813,444 91.7813,443.5938 L91.7813,442.7344 L87.7969,442.7344 L87.7969,445.1406 L89.25,445.1406 L89.25,445.0156 C89.25,444.5625 89.2813,444.4063 89.3906,444.2344 C89.5625,444.0156 89.8281,443.875 90.0781,443.875 C90.5313,443.875 90.8438,444.1875 90.9063,444.6563 C90.9219,444.8125 90.9219,444.8594 90.9219,445.0156 L90.9219,446.9375 C90.9219,447.3906 90.8906,447.5469 90.7656,447.7031 C90.6094,447.9219 90.3438,448.0625 90.0938,448.0625 C89.7969,448.0625 89.5156,447.9063 89.3594,447.6563 C89.2813,447.5 89.25,447.3438 89.25,446.9375 L89.25,446.8281 Z "/><text fill="#000000" font-family="sans-serif" font-size="12" lengthAdjust="spacingAndGlyphs" textLength="61" x="103.5" y="450.1074">Categoría</text><line style="stroke: #A80036; stroke-width: 1.5;" x1="75.5" x2="166.5" y1="461.9531" y2="461.9531"/><line style="stroke: #A80036; stroke-width: 1.5;" x1="75.5" x2="166.5" y1="469.9531" y2="469.9531"/><!--MD5=[6d71a914e2012022a05a57dfe4994584]
reverse link Lista to Objeto--><path d="M180.777,102.0591 C173.286,117.4711 164.858,134.8111 157.617,149.7081 " fill="none" id="Lista&lt;-Objeto" style="stroke: #A80036; stroke-width: 1.0;"/><polygon fill="#A80036" points="186.544,90.1951,180.3235,93.8428,181.298,100.9877,187.5186,97.3401,186.544,90.1951" style="stroke: #A80036; stroke-width: 1.0;"/><text fill="#000000" font-family="sans-serif" font-size="13" lengthAdjust="spacingAndGlyphs" textLength="23" x="158.4339" y="109.8232">1..*</text><text fill="#000000" font-family="sans-serif" font-size="13" lengthAdjust="spacingAndGlyphs" textLength="23" x="135.7066" y="138.8514">1..*</text><!--MD5=[f2543d9cc911c5d886ae95c216ba3781]
link Recordatorio to Lista--><path d="M120.141,59.4531 C131.722,59.4531 143.303,59.4531 154.885,59.4531 " fill="none" id="Recordatorio-Lista" style="stroke: #A80036; stroke-width: 1.0;"/><!--MD5=[5f65b3d493e00b15293bed2934801739]
link Objeto to Plantilla--><path d="M135.008,224.2111 C132.793,240.2951 130.153,259.4701 127.765,276.8141 " fill="none" id="Objeto-&gt;Plantilla" style="stroke: #A80036; stroke-width: 1.0;"/><polygon fill="#A80036" points="125.959,289.9371,130.7399,284.5387,127.5955,278.0492,122.8146,283.4477,125.959,289.9371" style="stroke: #A80036; stroke-width: 1.0;"/><text fill="#000000" font-family="sans-serif" font-size="13" lengthAdjust="spacingAndGlyphs" textLength="23" x="109.2765" y="243.7344">1..*</text><text fill="#000000" font-family="sans-serif" font-size="13" lengthAdjust="spacingAndGlyphs" textLength="23" x="101.7526" y="278.8446">1..*</text><!--MD5=[036c1ad55936c128e2ccd95715a756e7]
link Plantilla to Categoría--><path d="M121,364.1081 C121,385.3069 121,411.4547 121,429.8782 " fill="none" id="Plantilla-Categoría" style="stroke: #A80036; stroke-width: 1.0;"/><text fill="#000000" font-family="sans-serif" font-size="13" lengthAdjust="spacingAndGlyphs" textLength="23" x="96.0953" y="383.6144">0..*</text><text fill="#000000" font-family="sans-serif" font-size="13" lengthAdjust="spacingAndGlyphs" textLength="23" x="95.0531" y="418.8711">1..*</text><!--MD5=[fd261189380676ca34aae750ce2f67cf]
link Lista to Usuario--><path d="M208.826,90.1361 C221.277,137.3611 245.642,229.7741 259.894,283.8281 " fill="none" id="Lista-Usuario" style="stroke: #A80036; stroke-width: 1.0;"/><text fill="#000000" font-family="sans-serif" font-size="13" lengthAdjust="spacingAndGlyphs" textLength="23" x="212.6308" y="109.7526">0..*</text><!--MD5=[c5d6bef0395391c600f6f2379fcfac9f]
link Plantilla to Usuario--><path d="M172.27,326.9531 C183.84,326.9531 195.409,326.9531 206.979,326.9531 " fill="none" id="Plantilla-Usuario" style="stroke: #A80036; stroke-width: 1.0;"/><text fill="#000000" font-family="sans-serif" font-size="13" lengthAdjust="spacingAndGlyphs" textLength="23" x="176.0654" y="322.725">0..*</text><!--MD5=[f2ef8619f5efd52978971c64e6fc1316]
@startuml
title Diagrama de conceptos


class Lista {
+ String titulo
}
class Objeto {
+ String nombre
+ String ubicación
}

class Recordatorio {
    +Date fechaHora
}

class Plantilla {
    + String titulo
    + int valoración
}

class Usuario{
+ String nombre
+ String contraseña
+ String email
}

enum Categoría {

}


Lista "1..*" *- - "1..*" Objeto
Lista  -left-  Recordatorio
Objeto "1..*" - -* "1..*" Plantilla
Plantilla "0..*" -down- "1..*" Categoría
Lista "0..*" -right- Usuario
Plantilla "0..*" -right- Usuario
@enduml

PlantUML version 1.2019.12(Sun Nov 03 10:24:54 UTC 2019)
(GPL source distribution)
Java Runtime: Java(TM) SE Runtime Environment
JVM: Java HotSpot(TM) 64-Bit Server VM
Java Version: 1.7.0_25-b15
Operating System: Linux
Default Encoding: UTF-8
Language: en
Country: US
--></g></svg>